<?xml version="1.0" encoding="UTF-8"?>
<svg id="Layer_1" xmlns="http://www.w3.org/2000/svg" width="111.263916" height="147.9943542" viewBox="0 0 111.263916 147.9943542">
  <path d="M111.263916,36.5296631v15.7821655H0v-15.7821655h111.263916Z"/>
  <path d="M26.9901123,14.2247925V0h57.3677979v14.2247925H26.9901123Z"/>
  <path d="M40.3990479,72.6970825v-13.9454956h30.6218262v13.9454956h-30.6218262Z"/>
  <path d="M71.263916,99.7915344v13.4120789h-30.5800781v-13.4120789h30.5800781Z"/>
  <path d="M76.0581055,20.6511841v9.7432251h-40.5862427v-9.7432251h40.5862427Z"/>
  <path d="M58.8922729,79.4356079h27.8936157v13.3327637h-27.8936157v-13.3327637Z"/>
  <path d="M84.4035645,133.6505127h-25.7542725v-13.6220093h25.7542725v13.6220093Z"/>
  <path d="M25.7468262,92.6885681v-13.1074524h26.3006592v13.1074524h-26.3006592Z"/>
  <path d="M33.798584,72.7810669H10.1299438v-14.1201172h23.6686401v14.1201172Z"/>
  <path d="M77.8028564,72.6352539v-13.9174805h23.7211914v13.9174805h-23.7211914Z"/>
  <path d="M10.0981445,99.6812744h24.0230713v13.7139893H10.0981445v-13.7139893Z"/>
  <path d="M52.3977051,140.5658569c-.1246338,2.5464783-.2345581,4.7908936-.3626099,7.4059753H10.1970215v-7.4059753h42.2006836Z"/>
  <path d="M101.430542,113.3547363h-23.723999v-13.5456543h23.723999v13.5456543Z"/>
  <path d="M31.5891724,120.035675h20.703186v13.9229126h-20.703186v-13.9229126Z"/>
  <path d="M10.1953125,120.1087952h14.4379883v13.8677063h-14.4379883v-13.8677063Z"/>
  <path d="M101.5230713,139.9868164v8.0075378h-18.6194458v-8.0075378h18.6194458Z"/>
  <path d="M91.0097656,120.0291748h10.5587158v13.4423828h-10.5587158v-13.4423828Z"/>
  <path d="M58.6777344,140.4843445h16.8473511c.2979736,2.4643555.5703735,4.7174683.8955688,7.4073181h-17.7429199v-7.4073181Z"/>
  <path d="M18.9958496,92.8452148h-8.883728v-13.2955017h8.883728v13.2955017Z"/>
  <path d="M101.6048584,79.5749512v13.2514954h-8.8492432v-13.2514954h8.8492432Z"/>
</svg>