<?xml version="1.0" encoding="UTF-8"?>
<svg id="Layer_1" xmlns="http://www.w3.org/2000/svg" width="74.6258363" height="107.328749" viewBox="0 0 74.6258363 107.328749">
  <path d="M36.8696325,0c6.1817627,9.6858826,11.6414795,17.9910889,16.8417969,26.455658,5.5758057,9.0760193,11.1768799,18.1548157,16.2813721,27.4976501,7.3041992,13.3688354,5.8039551,28.9364319-3.3155518,39.7987061-10.1335449,12.0704956-26.711792,16.599884-42.190918,11.5270691C10.6512487,100.7450256.728153,88.4475708.0555456,73.717865c-.2357178-5.1608887.2130127-11.1525269,2.6289062-15.4972534C13.417484,38.9176025,24.9775426,20.0745239,36.8696325,0ZM16.5564001,68.3883972c.038208-.4917908.439209-1.5064697.1037598-2.1154175-1.0064697-1.8273926-2.300293-3.4964294-3.4819336-5.2272949-1.453125,1.3275146-3.7769775,2.4131775-4.2232666,4.0202637-3.9969482,14.3922119,8.6453857,31.7868652,23.5693359,32.8649292,2.838501.2050171,5.1972656-.3792725,5.5610352-3.5137939.3621826-3.119751-1.7745361-4.1396179-4.5845947-4.7039795-10.3677979-2.0821533-17.0701904-10.5019836-16.9443359-21.324707Z"/>
</svg>