<?xml version="1.0" encoding="UTF-8"?>
<svg id="Layer_1" xmlns="http://www.w3.org/2000/svg" width="176.5780792" height="105.9418305" viewBox="0 0 176.5780792 105.9418305">
  <path d="M138.1570129,24.8232815h20.6015472v19.3538208c6.1560364-.2996521,11.8308411-.5758667,17.819519-.8673401v23.299469c-4.4595337.8374939-8.9748535,1.9790955-13.5591125,2.4512329-3.5171051.3622742-4.4135284,1.9116516-4.2157898,5.1557312.2429199,3.985199-.0781403,8.0029602.1126404,11.9938049.1270142,2.657135-.7309875,3.859375-3.4568176,4.3278503-4.0920258.7032471-8.1780853,1.6558838-12.1136475,2.9631653-1.9227295.6386414-3.4488831,2.4018555-5.2531128,3.4930115-1.0573273.6393738-2.271759,1.2000732-3.4783783,1.3840942-16.793045,2.5607605-33.5396729,5.6223755-50.4226685,7.3132019-8.3033142.831543-16.8994904-.5943604-25.3009491-1.5470581-18.2028046-2.0642395-36.3738174-4.4203186-54.5293884-6.8680115-1.4878922-.2006226-2.7591324-2.0082397-4.1310425-3.0691833,1.444809-.6161804,2.9510727-1.8771362,4.3246765-1.7462158,10.6111526,1.0113525,21.1952744,2.3042297,31.7910767,3.480011,2.4505463.2719116,4.9138641.4287415,7.4975281.649292v-18.4089661c-7.7301178-.6702271-15.1190033-1.3024597-22.5061874-1.954071-5.9752808-.5270386-11.9663239-.9424744-17.9081039-1.727478-1.2381516-.1635437-2.2907181-1.7319336-3.4288025-2.6528931,1.2042084-.8153687,2.4549484-2.3974915,3.6054382-2.3276672,11.6222687.7053528,23.2385178,1.565979,34.8357849,2.6121826,12.2352905,1.1037598,24.4480896,2.4569702,37.0817871,3.7430725v-19.7193298c-12.7898254-.7640381-25.4940033-1.5229187-38.8596497-2.3213501.21521,4.2735596.7968445,7.749054.3965149,11.1074524-.2166901,1.8177185-2.1087952,3.4357605-3.2450867,5.1438599-.6903305-1.6411133-1.833786-3.2437134-1.9773788-4.9313354-.3061371-3.5980225-.093605-7.2402344-.093605-11.4677124-8.0314102-.3162842-15.8115158-.6252747-23.5919037-.9270935-1.6651154-.0646057-3.4253769.2088013-4.9659653-.256134-1.1529007-.3479309-2.023262-1.6320496-3.0194092-2.4993591,1.0174332-.8299866,2.0046234-2.3285217,3.0574265-2.3761292,4.9879837-.2254944,9.9993744-.1860352,14.9914246.0224304,3.1241913.1304626,4.3553696-.8262634,4.5203857-4.1627808.6472626-13.0868225.762558-13.0812378-12.3685989-13.1532288-1.9999008-.0109558-4.0948029.3450012-5.9703522-.1430054-1.5640945-.4069519-2.8710175-1.8023071-4.2918549-2.7599182,1.3916855-.7990417,2.7680588-2.259613,4.1774902-2.2922363,10.9949722-.2543945,21.9962692-.2359314,32.9956436-.2973328,1.9790497-.0110474,3.9582062-.0015259,6.2542419-.0015259V8.0894253c-11.0031281,0-21.7870789-.0140686-32.5709381.0095825-2.831192.0062256-5.6827316.3425598-8.4809265.072113-.864502-.0835266-1.997963-1.5849915-2.215538-2.6061401-.1333084-.6256409,1.0954285-1.8951721,1.9751434-2.2892456.9969177-.4466248,2.2864914-.2591858,3.4504395-.3108826C29.6628952,1.9007656,53.631546.1395046,77.609314.0045864c19.1286621-.1076965,38.2725067,1.7051697,57.39328,2.9220581,1.1260681.0716858,2.9321899,2.3870544,3.0110626,3.7405396.3367462,5.7799683.1433563,11.5907898.1433563,18.1560974ZM154.0339966,70.7341701c-24.510437,3.5825806-48.4124756,7.0762329-72.1032867,10.539032v19.411499c2.2579803-.263092,4.0875549-.3496399,5.864151-.7027588,18.5559845-3.6879578,37.1045685-7.413269,55.6520844-11.1437073,2.6079102-.5245361,5.3002777-.869812,7.7541962-1.8153687,1.1833496-.4559937,2.6093445-2.0578613,2.7049103-3.239563.3315125-4.0992737.1279449-8.2417603.1279449-13.0491333ZM132.6334991,51.9939968c-17.359314,1.3990479-34.0401764,2.7433777-50.7674255,4.0914917v19.7208862c17.271286-2.5349731,34.1116333-5.0067139,50.7674255-7.451355v-16.3610229ZM27.4092026,47.8838589c15.9591446.8806152,31.9604416,1.7635498,48.0147018,2.6493835v-20.1401367c-11.5776062,0-22.707901.0064392-33.8382111-.0015259q-16.0439453-.0114746-14.6777115,16.2146912c.0133667.1586609.1168442.3097229.5012207,1.2775879ZM132.9282532,8.0777981c-17.3085175-.895752-34.1366882-1.7666931-51.0753632-2.6433105v19.0968018h51.0753632V8.0777981ZM113.4716949,48.2230312c13.6910248-1.1391907,26.9779816-2.2447815,40.2371826-3.3480225v-14.3459167h-40.2371826v17.6939392ZM138.7866058,67.6581203c10.9622345-1.7229919,21.9634399-3.4520874,32.7467041-5.1469727v-14.1146545c-7.2069397.7125244-13.9671631,1.4342041-20.7378082,2.039032q-13.7750549,1.2305603-12.6467743,15.0768738c.0387268.4737549.269455.9317932.6378784,2.1457214ZM75.5110626,100.790353v-19.317627c-9.0111389-.8528442-17.6710815-1.6724243-26.4368439-2.5020142-.3196411,6.3854675-.6052399,12.0911255-.9169464,18.3180237,9.1170959,1.1671143,18.0836334,2.3149414,27.3537903,3.5016174ZM75.5164032,24.5408718V5.3047268c-8.953598.4737549-17.5010529.9260559-26.1814575,1.385376v17.850769h26.1814575ZM107.6162872,48.4661343v-17.6707458h-25.7420197v19.8321228c8.772049-.7365417,17.1382599-1.4389648,25.7420197-2.161377Z"/>
</svg>