<?xml version="1.0" encoding="UTF-8"?>
<svg id="Layer_1" xmlns="http://www.w3.org/2000/svg" width="132.1201623" height="130.1987367" viewBox="0 0 132.1201623 130.1987367">
  <path d="M77.1026001,87.6085072c-1.7032776,2.2261353-3.3962402,4.0848999-4.6729736,6.1954651-1.6596985,2.7437134-.327179,4.3612976,2.5473938,3.9078979,3.9970398-.6303711,7.8753662-1.9801025,11.8510742-2.7944946,1.7483826-.3580933,3.8905334-.7732849,5.375-.1025696,6.9673157,3.1478271,13.8109741,6.5822449,20.5891724,10.1240234,1.2278442.641571,1.9438782,2.2625122,2.8961792,3.4313354-1.302002.8507996-2.5090637,2.2172241-3.9198914,2.4769897-34.8339844,6.4137268-69.6892395,12.7121582-104.5430603,19.0178528-.9789734.1770935-2.0577393.4858093-2.9605103.2459106-1.4776917-.3926086-2.8488464-1.1861877-4.2649841-1.8106384.7815247-1.3061829,1.2668457-2.9975891,2.3891602-3.8605042,15.9562378-12.2685547,31.9316406-24.5144653,48.0420227-36.5794983,12.4236755-9.3040466,12.7640991-9.1958008,26.2254639-.7981567.1332092.0831299.2116699.2539062.4459534.5463867Z"/>
  <path d="M92.9692383,52.9485646c-.6063538-7.7427063-5.2101135-12.414032-12.8648682-13.2657776,1.6169128-3.1771545,2.4744568-6.368988,4.4636841-8.5087891,8.3862305-9.0211487,17.0830383-17.7549744,25.719696-26.5413208,5.6696167-5.7679443,13.1230774-6.1705322,18.1052551-1.0916443,5.0501099,5.1481018,5,12.9730225-.3442993,18.3495178-9.0368042,9.0912476-18.1091614,18.1517639-27.3777466,27.0040283-1.8145447,1.7330933-4.5881653,2.4619751-7.7017212,4.0539856Z"/>
  <path d="M81.5949402,87.9998036c4.0600586-3.4057617,7.8445129-6.5803223,11.7896118-9.8896484-4.2372742-6.1977234-8.1696167-12.1440125-12.3024597-17.9474792-5.7723999-8.1057739-5.795166-8.3372192,2.283783-14.6217651.386261.1518555.9343872.2185059,1.2549744.5239563.6970215.6641235,1.2779846,1.4500427,2.0290527,2.3299255-1.3711243,1.6578064-2.609436,3.1550293-4.0117493,4.8505554,4.5274048,6.7036133,8.9884338,13.2927551,13.4320984,19.8936462,3.6236572,5.3828125,3.5081787,6.3693237-1.2967834,10.4082336-2.0377502,1.7128906-4.2311401,3.2481689-6.1990356,5.0346375-2.3959045,2.1750183-4.5631409,2.4823608-6.9794922-.5820618Z"/>
</svg>