<?xml version="1.0" encoding="UTF-8"?>
<svg id="Layer_1" xmlns="http://www.w3.org/2000/svg" width="103.3331875" height="114.7964325" viewBox="0 0 103.3331875 114.7964325">
  <path d="M45.671957,30.8868109c-11.4971924,0-22.9945068.0310059-34.4915771-.0107422-7.791626-.0283203-10.9554443-3.1674805-11.0709229-10.8551636-.0499268-3.3319397-.1994629-6.6723938-.0327148-9.9953613C.3831387,3.9184881,3.7705899.1668097,9.7613125.1259466,33.9206143-.0389093,58.0821133-.0324091,82.2419033.090241c5.3569336.0271912,8.7371826,3.5982056,9.1865234,9.3179932.3250732,4.1410217.3133545,8.3372803.072876,12.486969-.3330078,5.7482605-3.9503174,8.9735107-9.8382568,8.9995728-11.9968262.0531006-23.9940186.0158691-35.9910889.0158691v-.0238342Z"/>
  <path d="M44.0952969,70.2086798c0-4.1387939.2418213-7.9732666-.0604248-11.7644043-.3898926-4.8923035,1.4163818-7.154541,6.4262695-8.0740967,14.5786133-2.6759033,29.0466309-5.9479675,43.6025391-8.7560425,3.3905029-.6541138,4.8566895-1.8549805,4.5980225-5.5076904-.34021-4.8087158.1435547-9.677002-.2199707-14.4823608-.2034912-2.6898499-1.40271-5.3043823-2.2508545-8.2974854,4.921875-.7201843,7.098999.9460144,7.1318359,4.9010315.0622559,7.4963379-.1762695,14.9952698-.1075439,22.4914551.0340576,3.7108459-2.4389648,4.212677-5.1694336,4.7686157-14.0357666,2.8579102-28.0244141,5.9689026-42.1130371,8.533844-5.0477295.9190063-7.9234619,2.477417-7.0108643,8.1842041.40979,2.5619812.0693359,5.2439575.0693359,8.2463074,5.7614746-.2771301,6.532959,2.1971436,5.9174805,7.8516846-1.0395508,9.5509949-.2498779,19.296814-.310791,28.9601746-.0391846,6.2109985-1.6062012,7.5635071-8.3446045,7.5319824-6.3377686-.0296021-7.5123291-1.2151184-7.5235596-7.634552-.0151367-8.6640015-.0186768-17.3280029-.0297852-25.9920044-.0014648-1.1659546.1152344-2.3509216-.0484619-3.494751-.901001-6.2915955-.9250488-6.288147,5.4438477-7.4659119Z"/>
</svg>