<?xml version="1.0" encoding="UTF-8"?>
<svg id="Layer_1" xmlns="http://www.w3.org/2000/svg" width="128.7492065" height="159.0353699" viewBox="0 0 128.7492065 159.0353699">
  <path d="M121.2481079,118.6435242c-3.7373047-2.3296509-7.7475586-4.3338013-11.0888672-7.1356812-1.5159912-1.2711792-1.984375-4.0661316-2.4422607-6.270752-1.1343994-5.4616089-7.5762939-10.5640259-12.7243652-8.9243469-5.4019775,1.72052-10.2858887,2.0837402-15.2132568-.972229-2.7681885-1.7168579-4.1912842.2687073-4.7943115,2.3950195-1.5029297,5.2990417-5.5062256,7.4490662-10.173584,9.2109375-3.9425049,1.4881897-7.9532471,10.2579651-6.9371338,14.4495239.1956787.8073425.6287842,1.661499.5087891,2.4241943-.8413086,5.3432922,1.5262451,8.2642517,6.5150146,9.9754333,1.291748.4431152,2.4335938,2.8525391,2.6949463,4.5085449,1.194458,7.5707397,1.6292725,11.8263245,10.8547363,10.3094482,1.2276611-.2018738,3.369751,1.0037842,4.0131836,2.1573792,2.1835938,3.9141846,5.0336914,5.9676208,9.6328125,5.2133179.4660645-.0763855,1.0390625.5003662,2.3947754,1.2090759-5.3306885.7184753-9.3914795,1.5101013-12.3670654-3.4875183-.9627686-1.6170654-4.0737305-2.2307434-6.3288574-2.7273254-2.3724365-.5224609-4.8968506-.3551331-8.1966553-.5351562-.3873291,2.8396301-.7930908,5.8139343-1.1721191,8.59198-3.7209473-2.5841675-3.1516113-2.7402649-2.1254883-7.0347595,1.0379639-4.3442993.859375-9.0688782.550293-13.5813904-.0758057-1.1056213-2.6094971-2.4393616-4.239624-2.9619446-3.7481689-1.2016296-5.477417-3.428009-6.192627-7.383606-1.2994385-7.1859436-1.8745117-7.0093079-8.9231567-5.9215393-3.6016235.5558777-7.4524536-.2119751-11.1542969-.6735535-4.2250366-.526825-7.5338745.1922302-8.9212036,4.8154907-.2802124.9338684-1.0973511,1.7007446-1.413147,2.6307983-1.6842041,4.9602051-5.3543701,6.9126282-10.302063,6.777771-3.447876-.0939941-5.3920288,1.5397034-6.9141235,4.5379028-1.6230469,3.1969604-3.826416,6.0992737-6.7884521,8.5410156,2.3531494-4.3692932,4.5551758-8.83255,7.170166-13.039093.6218872-1.0005493,2.5881348-1.4564514,4-1.6241455,5.8162231-.6907043,9.4377441-3.4652405,11.5932617-9.2008057,2.9344482-7.8081665,8.0319824-9.696167,15.8035889-6.9692078,5.5377808,1.9431763,13.7511597-1.2719421,15.1913452-6.8599243,1.4639893-5.6808472,4.9285889-8.1626282,10.0413818-9.6028137,2.6384277-.7432251,7.4942627-9.6694946,7.0087891-12.348114-2.678833-14.7796326-2.6422119-14.9195251-16.925415-18.6492004-3.3591309-.8771667-5.154541-2.5329285-6.1636963-5.614502-.9317627-2.844635-2.553772-5.5683899-2.9161377-8.4649048-.369812-2.9553833-1.7017212-4.2396851-4.1911011-5.4094238-4.7199707-2.2177734-5.2973022-4.8450928-2.0100708-8.8213196,2.4104614-2.9156189,5.1832886-5.5320129,7.7999268-8.276825,1.2202148-1.2801208,3.3677979-2.4552307,3.5091553-3.8397217.4362793-4.2763672.354248-8.6570129-.1072998-12.9344482-.1046143-.9691772-2.4719238-2.1638489-3.9448853-2.4249878-3.9616089-.7023315-5.8956299-3.0709839-7.1177979-6.674408-.8547974-2.5199585-2.3243408-4.8314514-3.5193481-7.2360229.4790039-.263916.9579468-.5278015,1.4368896-.791687,1.2126465,2.1479797,2.6013794,4.2179565,3.5956421,6.462677,1.4104614,3.1844482,3.0036011,5.292511,7.0529175,5.8500671,6.822876.9394836,6.4196777,1.8189392,7.126709,8.78479.8223877,8.1018982-1.3707275,13.933075-8.2098389,18.6423035-4.178894,2.877533-3.3102417,7.4368286.8426514,10.6703491,1.2022705.9361267,2.2828369,2.423645,2.7279053,3.8709717,2.2797852,7.4145203,6.2939453,12.5531616,14.7904053,12.8492737,2.1157227.0737,4.1783447,1.1360779,6.3087158,1.4564514,3.1965332.4806824,4.0804443,2.1165466,4.4122314,5.344574.517334,5.0331421,1.0040283,10.6156006,3.538208,14.7043762,1.7045898,2.7503357,6.9853516,4.7220459,10.548584,4.5537415,5.6893311-.2687378,10.7800293-1.1485596,16.0305176,2.5088196,3.9525146,2.7532654,7.041748-1.3998413,9.8448486-3.7195435,4.0915527-3.3858948,8.0784912-4.0704041,13.480957-.4300232-1.9204102,0-2.9454346-.2042542-3.8508301.0384216-2.6628418.7137451-5.3225098,1.4908447-7.8862305,2.4922485-.8287354.3237305-1.2176514,1.8040161-2.0430908,2.1008301-7.0981445,2.5523987-3.3830566,8.0512695-3.3553467,12.448761.0050049.7900391,1.4407959,1.6200867,2.2889404,2.3465271,2.713501,2.3243713,5.4614258,4.6087646,8.1960449,6.9085388-.2835693.2531433-.5670166.5062561-.8505859.7593689Z"/>
</svg>