<?xml version="1.0" encoding="UTF-8"?>
<svg id="Layer_1" xmlns="http://www.w3.org/2000/svg" width="105.1886434" height="78.6723853" viewBox="0 0 105.1886434 78.6723853">
  <path d="M64.8822171,38.5104001c0-3.8176575.1195752-7.3341504-.0347827-10.8385803-.1444775-3.2801587,1.004165-6.0287073,2.9085571-8.5448474,4.3521826-5.7502222,10.0388965-9.9241333,16.1970337-13.5051343,4.1957373-2.4398529,8.5626416-4.5291577,13.3875806-5.3914966,1.3936523-.2490802,2.8806299-.3068115,4.2807422-.120661,3.0007104.3989557,4.3842847,2.7869073,3.0705103,5.5193939-.8680371,1.8054053-2.0293066,3.5830371-3.4369849,4.9971094-8.1901831,8.2273425-17.8066846,14.1168677-29.0709155,17.1644934-.955708.2585742-1.9868188.2313428-2.9532861.4613269-.3269019.0777942-.781875.526322-.8013794.8296729-.0845215,1.3140381-.0968628,2.6415271-.0092944,3.9557153.1251855,1.8788232,1.0480444,3.3035596,2.6696924,4.299917,5.5176782,3.3901172,11.0103003,6.8211768,16.5400122,10.1914453,1.7899219,1.0909351,3.194729,2.4153223,2.8820874,4.6738989-.3191309,2.3055249-1.9796484,3.4346045-4.0908398,4.0252515-9.9632959,2.7873999-19.9247021,5.581604-29.887749,8.3698975-16.271554,4.5538184-32.5452356,9.1000269-48.8137738,13.6645679-1.6613837.4661426-3.2858038.6467432-4.9202472-.0667163-3.0724915-1.341167-3.7309589-4.4904932-1.3993268-6.8805835,8.8238617-9.0451392,17.6605206-18.0777979,26.4911371-27.1163379,4.7788403-4.891355,9.5602148-9.780249,14.3309363-14.6795142,3.6464136-3.7446606,9.0307178-4.4290649,13.4877026-1.6917737,1.6008032.9831409,3.1810913,2.0013501,4.8056836,2.9432849.6366724.3691406.8376709.8079309.8505835,1.5309558.0457251,2.5587488,1.1360596,4.575824,3.5163208,6.2087146ZM97.6988773,7.3075143c1.5861694-.0059729,3.2106152-1.348645,3.2089233-2.6523083-.0012158-.9366705-.8304932-1.6312115-1.9759204-1.6548853-1.5875317-.0328143-3.3076245,1.4100989-3.2616943,2.7360901.0330029.9527161.83729,1.5755896,2.0286914,1.5711035Z"/>
</svg>