<?xml version="1.0" encoding="UTF-8"?>
<svg id="Layer_1" xmlns="http://www.w3.org/2000/svg" width="578.2663574" height="652.5285034" viewBox="0 0 578.2663574 652.5285034">
  <path d="M0,622.6723633v-147.9796753h578.2663574v147.8410645c-192.814209-30.8569336-385.2085266-31.5031128-578.2663574.1386108ZM88.9076233,542.0171509c13.545929-7.3850098,18.2936096-21.2296143,11.9978943-34.9171143-4.7539673-10.3356323-14.1607056-13.8838501-24.4924622-14.4561157-12.9521484-.7172852-25.9670105-.2299805-38.9484253-.5349731-3.8963318-.0914917-5.1050873.996521-5.0863647,5.032959.1474915,31.8133545.0484924,63.6279297.0431366,95.4420776-.0002594,1.5948486.1637115,3.1896973.3096771,5.8496704,18.2744141-2.0294189,35.9740906-3.692749,53.559021-6.1703491,4.1505737-.5847778,8.5200806-3.2270508,11.7529907-6.0918579,14.4419861-12.7974243,9.6358032-35.980957-9.1354675-44.1542969ZM284.5191956,584.8303833c16.1352844,0,31.5948181.3928223,47.0152893-.2116699,5.4411621-.2133179,11.2015381-2.0550537,16.0942993-4.5621338,12.2045898-6.2539062,14.2466431-33.6260986-2.0794067-40.0155029-1.3143921-.5144043-2.5477905-1.2357788-3.9324951-1.9168701,2.3841553-1.4721069,4.7067871-2.515686,6.5501099-4.1125488,7.6937866-6.6647339,7.7739868-15.4460449,5.9442139-24.3696289-1.9395142-9.4585571-8.6410522-15.2501831-17.6950073-15.8947754-16.8815918-1.2019043-33.8676147-.9371338-50.8107605-1.2536621-.2523804-.0047607-.5117798.364624-1.0862427.8014526v91.5353394ZM546.4974976,597.5447998c0-1.3929443.0894775-1.9028931-.0126953-2.3709717-7.34552-33.6434937-14.7315063-67.2781372-22.0186768-100.9342041-.5894775-2.7224731-1.9980469-3.3233643-4.5098267-3.3252563-9.4898682-.0071411-18.9850464-.0397949-28.4667969-.3804932-3.9835205-.1431885-5.8081055,1.0724487-6.7036743,5.1674805-4.9763184,22.7536621-10.2693481,45.4379272-15.4064941,68.1566162-1.9702759,8.7133179-3.8147583,17.4550171-5.8763428,26.9172363,9.3620605.6272583,18.0441895,1.2089233,26.8164062,1.7966919,1.3004761-6.234314,2.4779663-11.8791504,3.7268677-17.8660889,6.6643677.3837891,12.9685059.5969238,19.225769,1.2554932,1.0357056.1089478,2.3741455,2.0383911,2.6986084,3.343811,1.041626,4.1906128,1.5063477,8.5252686,2.5632935,12.7109985.3264771,1.2929688,1.736084,3.1552734,2.819519,3.2797852,8.2164917.944397,16.4750977,1.5216675,25.144043,2.2489014ZM450.0281372,539.1994019c-.0457153-.000061-.0914307-.0001221-.137146-.0001221,0-7.1580811.2525635-14.3269653-.0551147-21.4718018-.5584717-12.9676514-6.9646606-21.4943848-19.2770386-25.6569214-12.1212769-4.0980835-24.3438721-3.7015381-36.177124.9611816-9.8464355,3.8799438-16.5153809,11.1169434-16.9589844,22.0423584-.640564,15.7767334-.897583,31.605957-.3612061,47.380188.3413696,10.0383911,5.3354492,18.1541138,14.8415527,22.6331177,10.1311035,4.7734375,20.8909912,5.3757935,31.7564087,3.7558594,17.315979-2.5817261,26.0678711-12.7272339,26.3516235-30.1644287.1056519-6.4914551.0170288-12.9862061.0170288-19.4794312ZM197.8135376,587.8206177c-.2787781-2.7109375-.2843933-4.1831055-.5960999-5.5873413-6.4914856-29.2420654-13.0617371-58.4667969-19.4671021-87.7276611-.6227112-2.8445435-1.7362366-3.8868408-4.6112366-3.7976685-9.4856567.2943115-18.982605.6578369-28.4641113.4611816-4.352417-.090271-6.020752,1.4064331-6.9263916,5.5441895-4.5907898,20.9740601-9.433075,41.8931885-14.2393799,62.8196411-2.3351135,10.1671143-4.7840881,20.3080444-7.125824,30.2249756,8.4989624,0,16.4517822.117981,24.3911438-.1544189.9559021-.0327148,2.3285217-2.0531616,2.6686401-3.3692017,1.2383423-4.791748,2.1202698-9.6755981,3.2158203-14.90271,3.003418,0,5.6552734.0622559,8.3034058-.0105591q12.9158325-.3548584,15.4259033,12.1422119c.0982666.4898071.0032349,1.1470947.2901611,1.4468994.9924927,1.0369873,2.0895386,2.748291,3.1907349,2.7824097,7.7895813.2409058,15.5900574.1280518,23.9443359.1280518ZM239.8405151,565.5442505v-73.105896h-26.7890015v92.7545776c18.8443298,0,37.2782593.0325928,55.710968-.1040649.8489685-.0062866,2.3835754-1.5043945,2.4167786-2.3539429.21875-5.5921631.112854-11.1969604.112854-17.1906738h-31.4515991Z"/>
  <path d="M293.8495483,384.1384583v38.6387024h-82.3061218c0,11.7866821-.0526428,22.56427.0181274,33.3410034.0489502,7.4576416-.1549988,7.7504272-7.3571472,7.7474976-26.1611328-.0106812-52.3222961-.0147095-78.483429-.0325317-6.6990662-.0045166-8.6001282-1.782959-7.6885681-8.3154297.610199-4.3726196,2.1658325-8.6184692,3.3658752-12.9022217,1.5958862-5.6967773,3.3824158-11.3429565,4.8620605-17.0690308,2.3218689-8.9852295,4.1843262-18.100769,6.8585205-26.9751587.6748657-2.239563,3.5550537-5.052124,5.6669617-5.2746277,2.1323547-.2246399,4.8205566,2.1591187,6.7951965,3.9256287,1.665863,1.4902649,2.6582642,3.7333374,5.0417175,5.1345825-1.2698364-2.9949646-2.1889954-6.2046204-3.8686829-8.9487305-8.4118652-13.7424011-7.9234924-25.5616455,1.806366-38.4052124,3.1115112-4.1072693,5.5876465-8.8738098,9.3154907-12.2901001,4.430481-4.0602112,9.6466064-7.4700928,14.9937134-10.2573853,4.2495728-2.2151794,7.833374-4.48172,10.5170288-8.6671143,4.4886475-7.0004272,9.4729309-8.4975281,17.8892517-3.8779907,13.1563416,7.2211914,27.6890869,11.9895935,41.8044128,17.3618469,2.7862244,1.0604553,6.3215027.1528015,9.6177063-.7379761-7.3538208-2.3522949-14.7454224-4.59375-22.0515137-7.0860291-8.3388672-2.844574-16.6665649-5.7475281-24.8605347-8.9767456-2.7051086-1.0660706-5.2702026-2.9203186-7.3918762-4.9457397-4.7253113-4.5109558-4.989502-9.5387878-1.0467224-14.6731873,1.5103455-1.9668274,3.4068604-3.6326599,5.0509033-5.5029297.9692078-1.1026001,2.6340942-2.4122009,2.5375061-3.500061-.6191101-6.971405,4.053833-6.3298645,8.751709-7.5749817,5.7923889-1.5351868,11.2816467-4.7839355,16.4379883-8.0292664,10.3950195-6.542511,20.9964905-12.5109253,33.5577698-13.0823364,7.4451599-.3387146,14.9583435.0682678,22.3999023.6578674,5.1204529.4057312,6.9819031,4.5219727,4.495636,9.0296021-1.4328003,2.5976257-3.1559448,5.0350647-5.3654175,8.5169067,2.5819092-1.4806519,4.3109131-2.4721985,6.0756836-3.4842529,2.4192505,11.1332703-4.2113953,41.7749634-24.0995178,52.1650696,3.6520081-1.8357849,7.5757751-3.278595,10.9051208-5.5809937,10.0641174-6.9597168,14.1968994-17.4736938,15.5675049-29.0283813,1.0236816-8.6299133,4.1948242-15.9706116,9.7644043-22.4807434,4.0824585-4.7719727,6.345459-4.6663208,9.8864746.3818359,1.8257446,2.6029053,4.0288086,4.9412537,6.0613403,7.3991394.3245239-.2473755.6490479-.4947205.9735718-.7420959-1.7561035-3.0879517-3.7349243-6.0724487-5.2263184-9.2833252-4.4353027-9.5490112.770752-18.0628967,11.2088623-17.8382568,1.9126587.0411377,3.7629395,2.9796753,4.7821045,3.8480835,0-2.3103638-.9702148-6.0309143.2712402-8.7367249,1.2566528-2.7388916,4.390564-5.0974121,7.2503662-6.5231323,6.6702271-3.3253784,13.6654663-6.0003662,20.5401001-8.9127502,1.0228271-.4332581,2.1054077-.7254028,3.1012573-1.7341919-2.1455688-.1625061-4.2911377-.3249817-6.6786499-.5057983,6.5054321-8.5411377,13.4199219-15.4502258,25.581543-11.3926697.0288696-.6367798.0577393-1.2735291.0866089-1.9103088-2.5968018-.9508972-5.1308594-2.1679993-7.8034058-2.7973633-5.5518188-1.3074036-6.1289062-2.3082275-3.2879028-7.3776855,1.7081909-3.0481873,3.4873047-6.0679932,5.4228516-8.9750977,3.9644165-5.9542847,7.7888794-11.729248,8.5830078-19.3230286.5979614-5.7174683,3.4282837-10.8320923,7.9222412-15.1717224,2.4700928-2.3853455,3.8143311-6.5965576,4.3447876-10.1800537.8527222-5.7609253,3.1242676-9.4846191,8.9569092-11.1464539,12.7559204-3.6344757,24.3482666-1.0097046,28.3249512,14.3421936.6605225,2.5498047,2.618103,4.8849792,2.7955933,7.4025574.1598511,2.2686768-1.1744385,4.7017517-2.0844116,6.9680786-.7244873,1.8043518-2.5758057,3.4519653-2.6088257,5.1941223-.5285034,27.9080505-6.8605347,54.564209-18.6165771,79.6908264-6.6066895,14.1207275-14.7379761,27.6229553-23.2380371,40.7186584-3.670105,5.6544189-9.7938232,9.8487244-15.2349243,14.161438-2.4619751,1.9514771-3.647522,3.3685913-3.4238281,6.745697,1.3206177,19.9465637,2.3518066,39.9132996,3.3446045,59.8800049.3400879,6.8392029.0534058,6.997406-6.8325806,7.0023193-22.1621704.0157166-44.3243408-.0002441-66.4865112-.0038452-2.1446533-.0003662-4.2893066,0-7.4934692,0ZM191.9518433,431.37146c-1.3788147-14.2982788-7.3018188-27.0383301-13.8122253-39.5670776.9211426,14.4608765,7.370636,26.970459,13.8122253,39.5670776Z"/>
  <path d="M246.7535095,183.6481323c5.4831543,1.2473145,11.7027283,1.2791443,16.2663269,4.0441284,5.9431152,3.6008606,10.6431274,9.2987976,15.6886292,14.2859802.7412415.7326965.9977417,2.7937012.5219116,3.7773438-2.2804871,4.7141113-.3643494,9.0523376.5852966,13.5618896.50177,2.3827515.289032,4.916748.3901367,7.3828125.092865,2.2655029.1003113,4.5371399.2744141,6.7961426.4844055,6.2851868,1.162262,12.5583496,1.500946,18.8504333.1427002,2.6514282-1.1798096,4.6239014-4.2802124,4.1038513-17.8572693-2.9956055-30.9389954,7.890564-45.1081848,15.5335693-3.6440125,1.9656372-6.8200073,4.8233948-10.5111084,6.6720581-7.0406494,3.5262451-11.9873352.1750183-12.4719238-7.7047119-.1500549-2.4407959-1.5325623-4.8155518-2.4100342-7.1987305-.6850891-1.8607178-1.5753479-3.6513977-2.1771851-5.5361633-2.0586548-6.4468994-3.1307983-13.3920288-6.216217-19.2908936-7.1513672-13.6724854-2.4671021-30.1763,7.3194275-36.6045532,10.846283-7.1243591,23.2204285-11.9414978,35.0209961-17.5709839,1.5328064-.7312622,3.6124878-.3161011,5.4388428-.4319763.0559692-.2234192.111969-.4468079.1679382-.6701965Z"/>
  <path d="M398.2998657,77.9540253c2.5733643-.740097,4.2296753-1.2164459,6.6080322-1.9004364,1.8970337,3.612793,3.8399048,7.312851,5.8953247,11.2272186,1.3501587-.9333191,2.9595947-2.0601349,4.583313-3.1659393,6.9974976-4.7654572,13.6607666-3.2796936,18.4296875,3.7606201,3.140625,4.6365662,6.6749878,9.0087433,10.0810547,13.4626617,4.9608765,6.486969,4.1630859,13.161911,1.2285156,20.2346191-3.489563,8.4101562-6.505188,17.0169525-9.9150391,26.0381012-.880127-.5181274-2.6572266-1.1155396-3.807373-2.3143921-7.3642578-7.6758728-16.7501831-8.5199738-26.3734741-7.4046936-4.8962402.5674438-6.4859009-1.3731995-5.5601807-5.3101196,1.7493896-7.4401855-1.0946045-13.3938141-4.1950684-19.8276978-2.2230225-4.6131592-2.6092529-10.1942596-3.3051758-15.4115143-.2161255-1.6203003,1.2374878-3.4633636,2.0119629-5.4197693,1.9208374,1.5184479,3.2077637,2.5357513,4.7525635,3.7569122-.522644-4.0345306-.9835815-7.412674-1.3930664-10.7970276-.6053467-5.0021667-3.8460693-3.1556854-6.2368164-2.1271667-3.2502441,1.3982239-5.5140991,1.4711456-6.1588745-2.5389862-.5153809-.0991516-.8600464-.2716827-1.1513062-.2062683-14.5632324,3.2705383-16.8295898-2.1076965-17.5895386-13.8928375-1.3078613-20.28125-2.8810425-40.5454407-4.1655884-60.8280106-.1089478-1.7199783,1.112793-3.5242233,1.7163696-5.289299,1.5574341.7186279,3.5107422,1.0593033,4.6121826,2.2131958,14.0324707,14.7006531,27.9486694,29.5123901,41.8730469,44.3160095,1.1373291,1.209137,2.0636597,2.6151123,3.1821899,3.8439178,3.4901733,3.8342438,2.9856567,7.4593811-.4307251,11.0166626-4.1469116,4.3179779-8.2903442,8.6398163-12.3806152,13.0111389-.7288208.7789154-1.1914673,1.8069153-2.3114014,3.5531006Z"/>
  <path d="M341.9393311,464.163147h-119.9115601v-30.0557861h119.9115601v30.0557861Z"/>
  <path d="M455.7091064,434.0645142v30.0401611h-102.9263306v-30.0401611h102.9263306Z"/>
  <path d="M303.7286377,424.390564c0-9.093811-.1432495-17.5731812.1658325-26.0359497.0427856-1.1704712,2.270874-3.1567993,3.5765381-3.2327271,6.1427002-.3573914,12.3164673-.1854248,18.479187-.192749,23.4880981-.0278625,46.9761353-.0522461,70.4642334-.077301,2.1401367-.0022888,4.2802734-.0002747,6.7805176-.0002747v29.5390015h-99.4663086Z"/>
  <path d="M413.9193115,424.5639648v-29.6994324c11.3684082,0,22.4735718-.0541992,33.5778809.0163879,9.6640015.0614319,8.3816528-1.2243958,8.4068604,8.5137329.0180664,6.9521484.003479,13.9043579.003479,21.1693115h-41.9882202Z"/>
  <path d="M132.9642334,619.2266846c9.6411743-2.2086792,8.9997559,6.7766113,13.1474609,10.2106323,4.7165833-2.6254883,3.7355652-12.0410156,12.9920044-10.5168457,0,8.0526733.1361389,16.0978394-.1832581,24.124939-.037262.9364014-2.5918884,1.772644-4.9925232,3.2997437v-15.7938232c-.3443909-.1439209-.6888123-.2878418-1.0332031-.4317627-2.0046387,3.0175781-4.0092773,6.0350952-6.5119019,9.8022461-2.5675354-3.5722046-4.7162781-6.5618286-6.8650208-9.5514526-.3465271-.0045776-.6930542-.0092163-1.0395813-.0137939,0,3.6395874.2303162,7.3016968-.1208496,10.9070435-.1286316,1.3203125-1.6359253,2.5062866-2.5143127,3.7536011-.9595947-1.1922607-2.7069092-2.3569336-2.7497253-3.5813599-.2592468-7.40802-.1290894-14.8296509-.1290894-22.2091675Z"/>
  <path d="M325.1062012,634.0942383c0-3.9418335.1505127-7.4103394-.0407104-10.8598633-.2067871-3.7293091,1.0466919-5.4180908,5.5263062-4.100769,0,7.7300415.0561523,15.670166-.088501,23.6065674-.0141602.7763062-1.3890381,2.25177-1.9165649,2.1602173-1.640686-.2848511-3.6487427-.74823-4.6694946-1.8945312-3.5910034-4.0324707-6.8290405-8.3792114-11.1772461-13.8307495v15.6452637c-2.0678711.1308594-3.6275635.2296143-5.6132812.3553467v-26.7891235c10.0802002.5168457,10.9055786,10.9949951,17.9794922,15.7076416Z"/>
  <path d="M272.7515869,644.4494019v-25.8984375c10.050293.4171753,10.8233948,10.866394,17.640686,15.168457v-14.7497559h5.4347534v26.2861328c-9.8511963-.8681641-10.8678589-11.0423584-17.7947998-15.2279663,0,3.9321899.1209106,7.5289917-.0321045,11.1140747-.1727295,4.046875-.2806091,4.0428467-5.2485352,3.3074951Z"/>
  <path d="M263.1317139,632.0427856c.0757446,7.3886719-6.1405029,13.449585-13.8065186,13.4613647-8.143219.0125122-13.9375305-5.6990967-13.9098816-13.7112427.0261841-7.574707,5.8542786-13.2919922,13.7163696-13.4555664,7.9439087-.1652832,13.9177856,5.6828613,14.0000305,13.7054443ZM248.9719238,640.3935547c4.026062.1592407,7.8476257-3.5618896,8.1243286-7.9109497.2914124-4.5807495-3.1873169-8.5875244-7.636261-8.795166-4.2998657-.2007446-7.7954712,3.2019653-7.9909973,7.7785645-.202301,4.7349854,3.1774292,8.7564087,7.5029297,8.9275513Z"/>
  <path d="M387.8589478,635.8260498c2.0180054,2.8397217,3.923645,5.5213013,6.0568237,8.5229492-3.9133301,1.2894287-6.946167,1.1499634-8.9698486-2.7004395-.5350342-1.0180664-1.1488037-2.1521606-2.043335-2.7851562-1.1986694-.8481445-2.7056885-1.260376-4.0803223-1.8597412-.5084839,1.2438354-1.1826782,2.4503174-1.4744873,3.743042-.2468872,1.0935059-.0509033,2.2870483-.0509033,3.861145h-5.657959v-25.9472046c4.7125854,0,9.2698975-.6451416,13.5096436.2366943,2.6343384.5479736,6.0515137,2.9956055,6.8193359,5.3424683.8555908,2.6148682-.744873,6.1248779-1.6004028,9.1536255-.2652588.939209-1.5881958,1.5797119-2.5085449,2.4326172ZM382.6257324,622.8031616c-3.6160278.7209473-6.048584.5463867-5.8088989,4.4526978.1443481,2.3531494.189209,4.3746948,3.34021,4.1038208,2.8643188-.2463379,6.6450806.3487549,6.4282227-3.9728394-.079834-1.5901489-2.5692139-3.0593262-3.9595337-4.5836792Z"/>
  <path d="M440.9658203,639.6414795c.100647,2.012146.1708374,3.4154663.2716064,5.4296875-6.1293335,0-11.9111328.1494141-17.6690063-.1540527-.9091797-.0479736-2.3979492-2.1135254-2.4473267-3.295166-.2709961-6.4801025-.3585815-12.9842529-.0474243-19.4579468.0588379-1.2251587,2.1293945-3.2658081,3.3905029-3.3612671,5.1073608-.3864746,10.2609863-.1604614,15.3104858-.1604614q.5769653,2.7977905-12.781189,5.6754761v4.7701416c3.7867432.1761475,7.5256348.3500977,11.1586914.519104,1.4909058,4.0773926-.5797729,4.6166382-3.5652466,4.4963989-2.4476929-.0986938-4.9024658-.0201416-7.6561279-.0201416-.0950317,2.0873413-.1594849,3.5026855-.2530518,5.5582275h14.2880859Z"/>
  <path d="M347.5856323,634.5791626v5.1297607h13.6950073v5.1828613h-19.3174438v-26.2537842c5.7938232,0,11.4088745-.1738281,16.9938965.1577148,1.0241699.060791,1.9264526,2.1752319,2.8850098,3.3416748-.2659302.503418-.5318604,1.0067749-.7977905,1.5101318-3.0791016,0-6.1721802.1859131-9.2338867-.0447388-4.3039551-.3242798-5.3817749,1.4599609-3.8786621,5.6797485h10.6539917q.8238525,4.2590332-11.0001221,5.2966309Z"/>
  <path d="M194.5617981,645.5776367c-1.7387085-.7791748-4.1218872-1.0843506-5.1040955-2.4198608-4.163147-5.6606445-10.608429-5.5253296-15.0566711.269165-.9720154,1.2662354-3.488678,1.3466187-5.2939453,1.9731445-.3070679-.3848267-.6141357-.7697144-.9212036-1.154541,3.4154358-8.043457,6.6856384-16.1534424,10.3252869-24.0941162,1.2697144-2.7700806,6.2766418-2.3041992,7.5099182.6213989,3.2773743,7.7747192,6.348999,15.6361084,9.5024414,23.4630737-.3205566.4472046-.6411438.8944702-.961731,1.3417358ZM181.9245911,624.9235229c-1.4103088,3.6245117-2.3077698,5.9310913-3.3553772,8.6234131h6.7080078c-1.0643921-2.737793-1.9569397-5.0335083-3.3526306-8.6234131Z"/>
  <path d="M227.6408997,640.9768677c-3.1596069,1.9302368-6.3192444,3.8605347-9.6470947,5.8936157.9978333.9367065,2.0973816,1.9689941,4.257019,3.9963989-3.3583984.7001343-5.6645813,1.1808472-7.9707642,1.6616211-.1183777-.3325195-.2367859-.6650391-.3551636-.9975586,1.0497437-.555603,2.0994873-1.111145,3.9583435-2.0949707-3.0995178-2.1105957-5.8755798-3.9381104-8.5849609-5.8594971-4.8864441-3.4651489-6.4339294-8.3761597-5.4328003-14.0287476.9431763-5.3251953,4.1536255-9.137146,9.396759-10.59375,5.5098267-1.5307007,10.5258484-.5037231,14.3803101,4.5300903-1.5550537,3.2431641-3.4538879,2.8254395-6.284729,1.3864746-4.5022278-2.2886963-9.0578918-.6046753-11.022522,3.4561768-1.960083,4.0513916-.5670166,9.3741455,3.6800842,11.0202637,2.2728271.8809814,5.2746277-.0926514,7.9446411-.2717285,1.744751-.1169434,3.484375-.3101196,5.2263184-.4691772.1515198.7902832.3030396,1.5805054.4545593,2.3707886Z"/>
  <path d="M529.7485962,632.9295654c-23.5281982.6670532-47.0563965,1.3341064-71.0331421,2.013916-.1876221-2.2062378-.3331299-3.918396-.5422974-6.378479,24.1904297,1.0357056,47.8765259,2.0498047,71.5626221,3.0639648l.0128174,1.3005981Z"/>
  <path d="M115.8950195,634.8948364c-23.385437-.6921997-45.8995361-1.3585815-68.4136658-2.0250244-.0083923-.3834229-.0167542-.7668457-.0251465-1.1502686,22.5005188-1.0375366,45.0010376-2.0750122,68.079071-3.1391602.1171875,2.0569458.2136841,3.7506714.3597412,6.3144531Z"/>
  <path d="M409.4379883,618.5842285c.1072388,2.1419067.2391357,3.6049805.2438965,5.0684204.0223389,6.9330444.0098877,13.866333.0098877,21.0797119h-5.6022949v-25.7426758c1.6431885-.1245728,3.2146606-.2437134,5.3485107-.4054565Z"/>
  <path d="M444.2993774,133.4106445c5.1549072,3.7272186,6.5234985,7.8501129,5.7623901,12.7919006-.4550171,2.9541321-1.4520264,5.9419861-5.1969604,5.0222168-3.1850586-.7822266-5.9246216-3.1301575-5.0350342-6.7896729.8952637-3.6825714,2.8328857-7.1117554,4.4696045-11.0244446Z"/>
  <path d="M59.686615,576.1949463v-23.9490967c5.9943237.583313,12.3509827-1.9395142,17.2252502,3.5200195,2.4984131,2.7984009,2.8911743,13.1241455.473053,16.3088379-4.6301575,6.0981445-11.302063,3.7588501-17.6983032,4.1202393Z"/>
  <path d="M59.5794067,534.3795166v-22.4906616c5.5570984-.3359375,11.022583-1.3988647,15.4121704,3.0100708,2.9579773,2.9710083,3.4459229,11.0529785.910614,15.1135864-3.875946,6.2080078-10.1218567,4.060791-16.3227844,4.3670044Z"/>
  <path d="M311.6048584,546.3792114c6.1259155.3991699,13.1749878-2.1217041,16.5539551,4.2153931,1.8706055,3.5082397,1.9598389,9.5847168.1358643,13.09021-3.2791138,6.3018188-10.3463745,4.1940308-16.6898193,4.3787231v-21.6843262Z"/>
  <path d="M311.3815918,509.6818237c5.8053589-.1986084,12.2103271-1.9161987,15.4165039,3.5541382,1.842041,3.1430054,1.9688721,8.9066162.2861938,12.1519165-3.1571655,6.0890503-9.9311523,3.4603882-15.7026978,4.1176147v-19.8236694Z"/>
  <path d="M505.2011719,515.6342773c2.3428345,13.119751,4.6856689,26.239502,7.0702515,39.5934448h-15.0292358c2.3782959-13.5452271,4.6713257-26.6049194,6.9644165-39.6646118.331543.0237427.6630249.0474854.9945679.071167Z"/>
  <path d="M403.5053101,539.3554688c0-6.8250122-.144043-13.6542358.0523071-20.4736328.1243286-4.3161011,1.223938-8.2130127,6.1688232-9.7339478,7.1192627-2.1896362,13.2401123,1.3606567,13.3655396,8.7634888.2451172,14.4714355.0778809,28.9612427-.3869019,43.4284058-.211853,6.5955811-3.4358521,9.1661377-9.446167,9.0878906-6.1831665-.0805054-9.3647461-2.9497681-9.6589355-9.6055908-.3157349-7.1425171-.071228-14.3098145-.071228-21.4663086-.0078125-.000061-.015625-.0001831-.0234375-.0003052Z"/>
  <path d="M150.2326965,551.1494141c2.2893372-12.2154541,4.5257263-24.1482544,6.7621155-36.0810547.4049683-.0234375.809906-.046875,1.2148438-.0703125,2.0820312,11.9115601,4.164032,23.8231201,6.3188782,36.1513672h-14.2958374Z"/>
</svg>